<svg width="421" height="369" viewBox="0 0 421 369" fill="none" xmlns="http://www.w3.org/2000/svg">
<g filter="url(#filter0_bdddddd_1_173)">
<rect x="89" y="2" width="243" height="168" rx="10" fill="white" fill-opacity="0.8"/>
</g>
<path d="M107.36 23.376H110.188V32H111.42V23.376H114.248V22.2H107.36V23.376ZM114.319 28.472C114.319 30.39 115.593 32.112 117.707 32.112C119.821 32.112 121.095 30.39 121.095 28.472C121.095 26.554 119.821 24.832 117.707 24.832C115.593 24.832 114.319 26.554 114.319 28.472ZM115.523 28.472C115.523 27.17 116.265 25.896 117.707 25.896C119.149 25.896 119.891 27.17 119.891 28.472C119.891 29.774 119.149 31.048 117.707 31.048C116.265 31.048 115.523 29.774 115.523 28.472ZM122.129 26.008H123.347V29.788C123.347 31.384 124.201 32.112 125.391 32.112C125.797 32.112 126.203 32.042 126.539 31.846L126.259 30.824C126.007 30.992 125.769 31.048 125.461 31.048C124.873 31.048 124.523 30.642 124.523 29.886V26.008H126.371V24.944H124.523V22.088L123.347 22.83V24.944H122.129V26.008ZM129.031 29.97C129.031 29.172 129.703 28.724 130.907 28.724H132.167V28.892C132.167 30.488 131.103 31.048 130.193 31.048C129.451 31.048 129.031 30.642 129.031 29.97ZM133.343 27.492C133.343 25.616 132.181 24.832 130.627 24.832C129.297 24.832 128.317 25.574 128.121 26.764L129.157 27.002C129.311 26.302 129.899 25.896 130.627 25.896C131.481 25.896 132.167 26.26 132.167 27.352V27.66H131.019C129.087 27.66 127.827 28.458 127.827 29.97C127.827 31.482 128.835 32.112 130.011 32.112C131.061 32.112 131.775 31.65 132.223 31.006L132.419 32H133.343V27.492ZM135.467 22.088V32H136.643V22.088H135.467ZM142.921 22.2V32H144.153V22.2H142.921ZM151.895 27.03C151.895 25.63 151.111 24.832 149.823 24.832C148.843 24.832 148.003 25.336 147.485 26.246V24.944H146.309V32H147.485V29.046C147.485 27.086 148.451 25.896 149.501 25.896C150.285 25.896 150.719 26.372 150.719 27.338V32H151.895V27.03ZM158.016 24.944L156.294 30.502L154.572 24.944H153.368L155.692 32H156.896L159.22 24.944H158.016ZM166.531 28.178C166.531 26.428 165.425 24.832 163.339 24.832C161.197 24.832 160.147 26.582 160.147 28.472C160.147 30.362 161.197 32.112 163.339 32.112C164.795 32.112 165.677 31.524 166.335 30.152L165.299 29.704C164.907 30.572 164.375 31.048 163.339 31.048C162.065 31.048 161.421 30.026 161.351 28.724H166.531V28.178ZM163.339 25.896C164.473 25.896 165.089 26.652 165.299 27.66H161.421C161.631 26.638 162.247 25.896 163.339 25.896ZM170.447 24.832C169.173 24.832 168.375 25.686 168.375 26.778C168.375 29.074 171.623 28.626 171.623 29.942C171.623 30.684 171.203 31.048 170.489 31.048C169.705 31.048 169.159 30.418 168.851 29.662L167.857 30.208C168.221 31.16 169.047 32.112 170.489 32.112C171.917 32.112 172.827 31.286 172.827 29.872C172.827 27.8 169.551 28.066 169.551 26.792C169.551 26.218 169.929 25.896 170.405 25.896C170.895 25.896 171.231 26.092 171.693 26.596L172.491 25.91C172.001 25.21 171.315 24.832 170.447 24.832ZM173.823 26.008H175.041V29.788C175.041 31.384 175.895 32.112 177.085 32.112C177.491 32.112 177.897 32.042 178.233 31.846L177.953 30.824C177.701 30.992 177.463 31.048 177.155 31.048C176.567 31.048 176.217 30.642 176.217 29.886V26.008H178.065V24.944H176.217V22.088L175.041 22.83V24.944H173.823V26.008ZM189.572 27.03C189.572 25.672 188.872 24.832 187.584 24.832C186.59 24.832 185.778 25.378 185.288 26.302C185.064 25.378 184.378 24.832 183.398 24.832C182.418 24.832 181.648 25.364 181.2 26.246V24.944H180.024V32H181.2V29.102C181.2 27.044 182.054 25.896 183.076 25.896C183.818 25.896 184.21 26.372 184.21 27.282V32H185.386V29.102C185.386 27.044 186.24 25.896 187.262 25.896C188.004 25.896 188.396 26.372 188.396 27.282V32H189.572V27.03ZM197.798 28.178C197.798 26.428 196.692 24.832 194.606 24.832C192.464 24.832 191.414 26.582 191.414 28.472C191.414 30.362 192.464 32.112 194.606 32.112C196.062 32.112 196.944 31.524 197.602 30.152L196.566 29.704C196.174 30.572 195.642 31.048 194.606 31.048C193.332 31.048 192.688 30.026 192.618 28.724H197.798V28.178ZM194.606 25.896C195.74 25.896 196.356 26.652 196.566 27.66H192.688C192.898 26.638 193.514 25.896 194.606 25.896ZM205.394 27.03C205.394 25.63 204.61 24.832 203.322 24.832C202.342 24.832 201.502 25.336 200.984 26.246V24.944H199.808V32H200.984V29.046C200.984 27.086 201.95 25.896 203 25.896C203.784 25.896 204.218 26.372 204.218 27.338V32H205.394V27.03ZM206.909 26.008H208.127V29.788C208.127 31.384 208.981 32.112 210.171 32.112C210.577 32.112 210.983 32.042 211.319 31.846L211.039 30.824C210.787 30.992 210.549 31.048 210.241 31.048C209.653 31.048 209.303 30.642 209.303 29.886V26.008H211.151V24.944H209.303V22.088L208.127 22.83V24.944H206.909V26.008Z" fill="black"/>
<path d="M106.088 60V56.048H105.16V54.864H106.088V53.712H105.16V52.528H106.088V48.576H108.6L109.848 52.528H111.304V48.576H113.08V52.528H113.992V53.712H113.08V54.864H113.992V56.048H113.08V60H110.552L109.272 56.048H107.864V60H106.088ZM107.864 54.864H108.92L108.568 53.712H107.832L107.864 54.864ZM111.352 57.504H111.432L111.368 56.048H110.936L111.352 57.504ZM107.8 52.528H108.248L107.784 50.992H107.72L107.8 52.528ZM110.6 54.864H111.336L111.304 53.712H110.232L110.6 54.864ZM115.308 57.072C115.5 58.928 116.988 60.128 118.892 60.128C121.132 60.128 122.572 58.544 122.572 56.288C122.572 54.096 121.484 52.576 119.148 52.576C118.54 52.576 117.996 52.736 117.564 52.992L117.82 50.656H121.932V48.8H116.172L115.548 55.104L116.812 55.36C117.34 54.768 118.044 54.352 118.796 54.352C119.932 54.352 120.556 55.04 120.556 56.288C120.556 57.552 119.98 58.272 118.892 58.272C118.156 58.272 117.452 57.952 117.212 56.72L115.308 57.072ZM128.448 48.672C125.776 48.672 124.32 50.816 124.32 54.4C124.32 57.984 125.776 60.128 128.448 60.128C131.12 60.128 132.576 57.984 132.576 54.4C132.576 50.816 131.12 48.672 128.448 48.672ZM128.448 50.528C129.92 50.528 130.592 51.904 130.592 54.4C130.592 56.896 129.92 58.272 128.448 58.272C126.976 58.272 126.304 56.896 126.304 54.4C126.304 51.904 126.976 50.528 128.448 50.528ZM133.881 62.496H135.273L137.753 57.664H135.081L133.881 62.496ZM139.602 60H146.722V58.144H142.786L145.522 54.576C146.194 53.696 146.482 52.816 146.482 51.92C146.482 50.032 145.266 48.672 143.138 48.672C141.266 48.672 139.89 49.952 139.778 51.648L141.634 52C141.762 51.056 142.29 50.528 143.09 50.528C144.002 50.528 144.466 51.088 144.466 52C144.466 52.64 144.274 53.184 143.602 54.032L139.602 59.2V60ZM152.87 48.672C150.198 48.672 148.742 50.816 148.742 54.4C148.742 57.984 150.198 60.128 152.87 60.128C155.542 60.128 156.998 57.984 156.998 54.4C156.998 50.816 155.542 48.672 152.87 48.672ZM152.87 50.528C154.342 50.528 155.014 51.904 155.014 54.4C155.014 56.896 154.342 58.272 152.87 58.272C151.398 58.272 150.726 56.896 150.726 54.4C150.726 51.904 151.398 50.528 152.87 50.528ZM163.104 48.672C160.432 48.672 158.976 50.816 158.976 54.4C158.976 57.984 160.432 60.128 163.104 60.128C165.776 60.128 167.232 57.984 167.232 54.4C167.232 50.816 165.776 48.672 163.104 48.672ZM163.104 50.528C164.576 50.528 165.248 51.904 165.248 54.4C165.248 56.896 164.576 58.272 163.104 58.272C161.632 58.272 160.96 56.896 160.96 54.4C160.96 51.904 161.632 50.528 163.104 50.528Z" fill="black"/>
<path d="M178.068 50.993V53.281H175.78V54.477H178.068V56.778H179.264V54.477H181.565V53.281H179.264V50.993H178.068ZM183.222 58H188.864V56.752H185.354L187.941 53.463C188.461 52.8 188.695 52.085 188.695 51.383C188.695 49.758 187.59 48.796 186.056 48.796C184.587 48.796 183.495 49.836 183.404 51.188L184.704 51.435C184.808 50.616 185.263 50.044 186.056 50.044C186.888 50.044 187.304 50.603 187.304 51.435C187.304 51.981 187.161 52.384 186.576 53.125L183.222 57.428V58ZM190.613 55.621C190.795 57.207 191.939 58.104 193.447 58.104C195.241 58.104 196.346 56.804 196.346 55.036C196.346 53.281 195.358 51.968 193.525 51.968C193.031 51.968 192.511 52.163 192.199 52.423L192.472 50.148H195.839V48.9H191.315L190.808 53.97L191.705 54.152C192.134 53.58 192.758 53.216 193.447 53.216C194.474 53.216 194.968 53.97 194.968 55.036C194.968 56.115 194.435 56.856 193.447 56.856C192.719 56.856 192.108 56.453 191.952 55.374L190.613 55.621ZM197.881 50.876C197.881 52.033 198.804 52.956 199.987 52.956C201.17 52.956 202.093 52.033 202.093 50.876C202.093 49.719 201.17 48.796 199.987 48.796C198.804 48.796 197.881 49.719 197.881 50.876ZM199.025 50.876C199.025 50.304 199.389 49.875 199.987 49.875C200.585 49.875 200.949 50.304 200.949 50.876C200.949 51.448 200.585 51.877 199.987 51.877C199.389 51.877 199.025 51.448 199.025 50.876ZM203.159 56.024C203.159 57.181 204.082 58.104 205.265 58.104C206.448 58.104 207.371 57.181 207.371 56.024C207.371 54.867 206.448 53.944 205.265 53.944C204.082 53.944 203.159 54.867 203.159 56.024ZM204.303 56.024C204.303 55.452 204.667 55.023 205.265 55.023C205.863 55.023 206.227 55.452 206.227 56.024C206.227 56.596 205.863 57.025 205.265 57.025C204.667 57.025 204.303 56.596 204.303 56.024ZM205.837 48.471L198.83 57.831L199.584 58.416L206.591 49.056L205.837 48.471Z" fill="#FF0000"/>
<path d="M106.203 75.4L104.611 76.264L104.467 77L105.595 76.408L104.699 81H105.363L106.459 75.4H106.203ZM109.536 75.336C108.72 75.336 108.224 75.664 107.808 76.192C107.224 76.936 106.968 78 106.968 79.056C106.968 80.376 107.552 81.064 108.496 81.064C109.312 81.064 109.808 80.736 110.224 80.208C110.808 79.464 111.064 78.4 111.064 77.344C111.064 76.024 110.496 75.336 109.536 75.336ZM109.44 75.976C110.032 75.976 110.352 76.392 110.352 77.432C110.352 78.504 109.92 80.424 108.592 80.424C108 80.424 107.68 80.008 107.68 78.968C107.68 77.896 108.12 75.976 109.44 75.976ZM114.192 75.336C113.376 75.336 112.88 75.664 112.464 76.192C111.88 76.936 111.624 78 111.624 79.056C111.624 80.376 112.208 81.064 113.152 81.064C113.968 81.064 114.464 80.736 114.88 80.208C115.464 79.464 115.72 78.4 115.72 77.344C115.72 76.024 115.152 75.336 114.192 75.336ZM114.096 75.976C114.688 75.976 115.008 76.392 115.008 77.432C115.008 78.504 114.576 80.424 113.248 80.424C112.656 80.424 112.336 80.008 112.336 78.968C112.336 77.896 112.776 75.976 114.096 75.976Z" fill="#718EBF"/>
<path d="M107.176 98.528V98.616C107.176 99.48 107.816 100.064 108.608 100.064C109.928 100.064 110.712 99.152 110.712 97.832C110.712 96.752 110.136 96.288 109.312 96.288C108.888 96.288 108.528 96.48 108.32 96.664L108.8 95.04H110.936L111.056 94.4H108.312L107.472 97.456L107.896 97.552C108.256 97.152 108.744 96.928 109.144 96.928C109.696 96.928 110 97.216 110 97.936C110 98.824 109.464 99.424 108.696 99.424C108.128 99.424 107.832 99.016 107.832 98.472V98.408L107.176 98.528ZM114.192 94.336C113.376 94.336 112.88 94.664 112.464 95.192C111.88 95.936 111.624 97 111.624 98.056C111.624 99.376 112.208 100.064 113.152 100.064C113.968 100.064 114.464 99.736 114.88 99.208C115.464 98.464 115.72 97.4 115.72 96.344C115.72 95.024 115.152 94.336 114.192 94.336ZM114.096 94.976C114.688 94.976 115.008 95.392 115.008 96.432C115.008 97.504 114.576 99.424 113.248 99.424C112.656 99.424 112.336 99.008 112.336 97.968C112.336 96.896 112.776 94.976 114.096 94.976Z" fill="#718EBF"/>
<path d="M110.859 113.4L109.267 114.264L109.123 115L110.251 114.408L109.355 119H110.019L111.115 113.4H110.859ZM114.192 113.336C113.376 113.336 112.88 113.664 112.464 114.192C111.88 114.936 111.624 116 111.624 117.056C111.624 118.376 112.208 119.064 113.152 119.064C113.968 119.064 114.464 118.736 114.88 118.208C115.464 117.464 115.72 116.4 115.72 115.344C115.72 114.024 115.152 113.336 114.192 113.336ZM114.096 113.976C114.688 113.976 115.008 114.392 115.008 115.432C115.008 116.504 114.576 118.424 113.248 118.424C112.656 118.424 112.336 118.008 112.336 116.968C112.336 115.896 112.776 113.976 114.096 113.976Z" fill="#718EBF"/>
<path d="M114.192 133.336C113.376 133.336 112.88 133.664 112.464 134.192C111.88 134.936 111.624 136 111.624 137.056C111.624 138.376 112.208 139.064 113.152 139.064C113.968 139.064 114.464 138.736 114.88 138.208C115.464 137.464 115.72 136.4 115.72 135.344C115.72 134.024 115.152 133.336 114.192 133.336ZM114.096 133.976C114.688 133.976 115.008 134.392 115.008 135.432C115.008 136.504 114.576 138.424 113.248 138.424C112.656 138.424 112.336 138.008 112.336 136.968C112.336 135.896 112.776 133.976 114.096 133.976Z" fill="#718EBF"/>
<path d="M136.302 146.328C136.174 145.824 135.734 145.336 135.054 145.336C134.118 145.336 133.414 145.872 133.414 146.888C133.414 147.632 133.95 148.048 134.51 148.32C135.046 148.584 135.366 148.792 135.366 149.344C135.366 150.048 134.846 150.392 134.246 150.392C133.582 150.392 133.27 149.848 133.222 149.184L132.582 149.528C132.582 150.376 133.302 151.064 134.094 151.064C134.71 151.064 135.134 150.952 135.574 150.544C135.918 150.232 136.102 149.84 136.102 149.216C136.102 148.408 135.678 148.12 135.038 147.784C134.502 147.504 134.15 147.288 134.15 146.784C134.15 146.304 134.43 146.008 134.926 146.008C135.262 146.008 135.518 146.176 135.694 146.664L136.302 146.328Z" fill="#718EBF"/>
<path d="M124 131C124 129.343 125.343 128 127 128H141C142.657 128 144 129.343 144 131V140H124V131Z" fill="white"/>
<path d="M156.716 145.4L155.62 151H156.332L157.132 146.92L157.812 150.488H158.34L160.372 146.92L159.572 151H160.284L161.38 145.4H160.516L158.284 149.344L157.548 145.4H156.716Z" fill="#718EBF"/>
<path d="M148 125C148 123.343 149.343 122 151 122H165C166.657 122 168 123.343 168 125V140H148V125Z" fill="white"/>
<path d="M180.961 146.072H182.537L181.577 151H182.289L183.249 146.072H184.825L184.961 145.4H181.097L180.961 146.072Z" fill="#718EBF"/>
<path d="M172 101C172 99.3431 173.343 98 175 98H189C190.657 98 192 99.3431 192 101V140H172V101Z" fill="white"/>
<path d="M209.065 145.4L207.073 149.96L206.673 145.992H206.009L204.145 149.96L203.921 145.4H203.177L203.593 151H204.305L206.113 147.16L206.553 151H207.265L209.817 145.4H209.065Z" fill="#718EBF"/>
<path d="M196 112C196 110.343 197.343 109 199 109H213C214.657 109 216 110.343 216 112V140H196V112Z" fill="#FF0000"/>
<path d="M228.961 146.072H230.537L229.577 151H230.289L231.249 146.072H232.825L232.961 145.4H229.097L228.961 146.072Z" fill="#718EBF"/>
<path d="M220 84C220 82.3431 221.343 81 223 81H237C238.657 81 240 82.3431 240 84V140H220V84Z" fill="#FF0000"/>
<path d="M254.673 145.4L253.577 151H254.289L254.793 148.416H256.793L256.929 147.744H254.929L255.249 146.072H257.729L257.865 145.4H254.673Z" fill="#718EBF"/>
<path d="M244 131C244 129.343 245.343 128 247 128H261C262.657 128 264 129.343 264 131V140H244V131Z" fill="white"/>
<path d="M280.302 146.328C280.174 145.824 279.734 145.336 279.054 145.336C278.118 145.336 277.414 145.872 277.414 146.888C277.414 147.632 277.95 148.048 278.51 148.32C279.046 148.584 279.366 148.792 279.366 149.344C279.366 150.048 278.846 150.392 278.246 150.392C277.582 150.392 277.27 149.848 277.222 149.184L276.582 149.528C276.582 150.376 277.302 151.064 278.094 151.064C278.71 151.064 279.134 150.952 279.574 150.544C279.918 150.232 280.102 149.84 280.102 149.216C280.102 148.408 279.678 148.12 279.038 147.784C278.502 147.504 278.15 147.288 278.15 146.784C278.15 146.304 278.43 146.008 278.926 146.008C279.262 146.008 279.518 146.176 279.694 146.664L280.302 146.328Z" fill="#718EBF"/>
<path d="M268 112C268 110.343 269.343 109 271 109H285C286.657 109 288 110.343 288 112V140H268V112Z" fill="#FF0000"/>
<path d="M305.302 146.328C305.174 145.824 304.734 145.336 304.054 145.336C303.118 145.336 302.414 145.872 302.414 146.888C302.414 147.632 302.95 148.048 303.51 148.32C304.046 148.584 304.366 148.792 304.366 149.344C304.366 150.048 303.846 150.392 303.246 150.392C302.582 150.392 302.27 149.848 302.222 149.184L301.582 149.528C301.582 150.376 302.302 151.064 303.094 151.064C303.71 151.064 304.134 150.952 304.574 150.544C304.918 150.232 305.102 149.84 305.102 149.216C305.102 148.408 304.678 148.12 304.038 147.784C303.502 147.504 303.15 147.288 303.15 146.784C303.15 146.304 303.43 146.008 303.926 146.008C304.262 146.008 304.518 146.176 304.694 146.664L305.302 146.328Z" fill="#718EBF"/>
<path d="M292 97C292 95.3431 293.343 94 295 94H309C310.657 94 312 95.3431 312 97V140H292V97Z" fill="#FF0000"/>
<defs>
<filter id="filter0_bdddddd_1_173" x="0.90284" y="-62" width="419.194" height="430.219" filterUnits="userSpaceOnUse" color-interpolation-filters="sRGB">
<feFlood flood-opacity="0" result="BackgroundImageFix"/>
<feGaussianBlur in="BackgroundImageFix" stdDeviation="32"/>
<feComposite in2="SourceAlpha" operator="in" result="effect1_backgroundBlur_1_173"/>
<feColorMatrix in="SourceAlpha" type="matrix" values="0 0 0 0 0 0 0 0 0 0 0 0 0 0 0 0 0 0 127 0" result="hardAlpha"/>
<feOffset dy="2.03929"/>
<feGaussianBlur stdDeviation="1.73339"/>
<feColorMatrix type="matrix" values="0 0 0 0 0 0 0 0 0 0 0 0 0 0 0 0 0 0 0.01 0"/>
<feBlend mode="normal" in2="effect1_backgroundBlur_1_173" result="effect2_dropShadow_1_173"/>
<feColorMatrix in="SourceAlpha" type="matrix" values="0 0 0 0 0 0 0 0 0 0 0 0 0 0 0 0 0 0 127 0" result="hardAlpha"/>
<feOffset dy="8.97286"/>
<feGaussianBlur stdDeviation="3.58914"/>
<feColorMatrix type="matrix" values="0 0 0 0 0 0 0 0 0 0 0 0 0 0 0 0 0 0 0.0117778 0"/>
<feBlend mode="normal" in2="effect2_dropShadow_1_173" result="effect3_dropShadow_1_173"/>
<feColorMatrix in="SourceAlpha" type="matrix" values="0 0 0 0 0 0 0 0 0 0 0 0 0 0 0 0 0 0 127 0" result="hardAlpha"/>
<feOffset dy="22.0243"/>
<feGaussianBlur stdDeviation="7.15789"/>
<feColorMatrix type="matrix" values="0 0 0 0 0 0 0 0 0 0 0 0 0 0 0 0 0 0 0.015 0"/>
<feBlend mode="normal" in2="effect3_dropShadow_1_173" result="effect4_dropShadow_1_173"/>
<feColorMatrix in="SourceAlpha" type="matrix" values="0 0 0 0 0 0 0 0 0 0 0 0 0 0 0 0 0 0 127 0" result="hardAlpha"/>
<feOffset dy="42.4172"/>
<feGaussianBlur stdDeviation="14.0303"/>
<feColorMatrix type="matrix" values="0 0 0 0 0 0 0 0 0 0 0 0 0 0 0 0 0 0 0.0182222 0"/>
<feBlend mode="normal" in2="effect4_dropShadow_1_173" result="effect5_dropShadow_1_173"/>
<feColorMatrix in="SourceAlpha" type="matrix" values="0 0 0 0 0 0 0 0 0 0 0 0 0 0 0 0 0 0 127 0" result="hardAlpha"/>
<feOffset dy="71.375"/>
<feGaussianBlur stdDeviation="25.797"/>
<feColorMatrix type="matrix" values="0 0 0 0 0 0 0 0 0 0 0 0 0 0 0 0 0 0 0.0227778 0"/>
<feBlend mode="normal" in2="effect5_dropShadow_1_173" result="effect6_dropShadow_1_173"/>
<feColorMatrix in="SourceAlpha" type="matrix" values="0 0 0 0 0 0 0 0 0 0 0 0 0 0 0 0 0 0 127 0" result="hardAlpha"/>
<feOffset dy="110.121"/>
<feGaussianBlur stdDeviation="44.0486"/>
<feColorMatrix type="matrix" values="0 0 0 0 0 0 0 0 0 0 0 0 0 0 0 0 0 0 0.03 0"/>
<feBlend mode="normal" in2="effect6_dropShadow_1_173" result="effect7_dropShadow_1_173"/>
<feBlend mode="normal" in="SourceGraphic" in2="effect7_dropShadow_1_173" result="shape"/>
</filter>
</defs>
</svg>
