<svg width="72" height="72" viewBox="0 0 72 72" fill="none" xmlns="http://www.w3.org/2000/svg">
<path d="M35.7763 0.866699C28.7635 0.866539 21.9082 2.94593 16.0772 6.84191C10.2462 10.7379 5.70141 16.2755 3.01762 22.7544C0.333831 29.2333 -0.368454 36.3626 0.999575 43.2407C2.3676 50.1187 5.7445 56.4367 10.7032 61.3955C15.662 66.3544 21.9798 69.7314 28.8579 71.0996C35.7359 72.4678 42.8652 71.7656 49.3442 69.082C55.8232 66.3984 61.3609 61.8537 65.257 56.0228C69.1531 50.1919 71.2326 43.3366 71.2326 36.3238C71.2285 26.9214 67.4917 17.9052 60.8433 11.2566C54.1948 4.60805 45.1787 0.870992 35.7763 0.866699ZM35.7763 11.5036C37.8801 11.5038 39.9365 12.1277 41.6856 13.2966C43.4347 14.4655 44.798 16.1268 45.6029 18.0705C46.4079 20.0141 46.6184 22.1528 46.2079 24.2161C45.7974 26.2794 44.7843 28.1747 43.2966 29.6622C41.809 31.1497 39.9137 32.1627 37.8504 32.5731C35.787 32.9834 33.6483 32.7727 31.7047 31.9676C29.7612 31.1625 28.0999 29.7992 26.9312 28.0499C25.7624 26.3007 25.1386 24.2442 25.1386 22.1405C25.1368 20.7431 25.4107 19.359 25.9447 18.0676C26.4786 16.7762 27.2621 15.6028 28.2503 14.6147C29.2385 13.6266 30.4119 12.8432 31.7034 12.3094C32.9948 11.7755 34.3789 11.5017 35.7763 11.5036ZM35.7763 61.8519C31.5634 61.8515 27.4161 60.8085 23.7042 58.8161C19.9923 56.8236 16.8311 53.9435 14.5025 50.4327C14.6086 43.377 28.685 39.5123 35.7763 39.5123C42.8319 39.5123 56.944 43.377 57.0501 50.4327C54.7214 53.9432 51.5601 56.823 47.8482 58.8152C44.1363 60.8073 39.989 61.85 35.7763 61.8503V61.8519Z" fill="#F60204"/>
</svg>
