<svg width="42" height="26" viewBox="0 0 42 26" fill="none" xmlns="http://www.w3.org/2000/svg">
<path d="M23.3061 15.3587H22.271V9.66772C22.271 9.53047 22.2165 9.39884 22.1195 9.30179C22.0224 9.20473 21.8908 9.15021 21.7535 9.15021H20.8756C20.5692 9.15013 20.2696 9.24088 20.0147 9.41099L19.0235 10.0718C18.967 10.1095 18.9184 10.1579 18.8807 10.2143C18.8429 10.2707 18.8166 10.334 18.8033 10.4005C18.79 10.4671 18.7899 10.5356 18.8031 10.6022C18.8163 10.6688 18.8424 10.7321 18.8801 10.7886L19.4543 11.6495C19.4919 11.706 19.5403 11.7545 19.5967 11.7923C19.6531 11.8301 19.7164 11.8563 19.783 11.8697C19.8495 11.883 19.9181 11.883 19.9847 11.8699C20.0512 11.8567 20.1146 11.8305 20.171 11.7928L20.2018 11.7726V15.3579H19.1709C19.0336 15.3579 18.902 15.4124 18.8049 15.5095C18.7079 15.6065 18.6533 15.7382 18.6533 15.8754V16.9088C18.6533 17.0461 18.7079 17.1777 18.8049 17.2747C18.902 17.3718 19.0336 17.4263 19.1709 17.4263H23.3093C23.4466 17.4263 23.5782 17.3718 23.6752 17.2747C23.7723 17.1777 23.8268 17.0461 23.8268 16.9088V15.8754C23.8267 15.8072 23.8131 15.7398 23.7869 15.6769C23.7606 15.614 23.7222 15.5569 23.6738 15.5089C23.6254 15.4608 23.568 15.4229 23.5049 15.3971C23.4418 15.3713 23.3742 15.3583 23.3061 15.3587ZM39.8607 0.873291H2.61296C2.06417 0.873291 1.53785 1.0913 1.1498 1.47935C0.761739 1.86741 0.543732 2.39373 0.543732 2.94252L0.543732 23.6356C0.543732 24.1844 0.761739 24.7107 1.1498 25.0988C1.53785 25.4869 2.06417 25.7049 2.61296 25.7049H39.8607C40.4092 25.7044 40.9351 25.4862 41.3228 25.0982C41.7105 24.7102 41.9283 24.1841 41.9283 23.6356V2.94252C41.9283 2.39401 41.7105 1.86794 41.3228 1.47993C40.9351 1.09192 40.4092 0.87372 39.8607 0.873291ZM3.64798 22.6006V18.4622C4.19145 18.4622 4.7296 18.5692 5.2317 18.7772C5.7338 18.9851 6.19002 19.29 6.57431 19.6743C6.95861 20.0586 7.26344 20.5148 7.47142 21.0169C7.6794 21.519 7.78644 22.0571 7.78644 22.6006H3.64798ZM3.64798 8.11519V3.97754H7.78644C7.78644 5.07513 7.35043 6.12776 6.57431 6.90387C5.7982 7.67999 4.74557 8.116 3.64798 8.116V8.11519ZM21.2368 20.5314C17.8086 20.5314 15.0292 17.2919 15.0292 13.2887C15.0292 9.28546 17.8086 6.04596 21.2368 6.04596C24.665 6.04596 27.4445 9.28546 27.4445 13.2887C27.4445 17.2919 24.6642 20.5314 21.2368 20.5314ZM38.8257 22.6006H34.6872C34.6872 21.503 35.1233 20.4504 35.8994 19.6743C36.6755 18.8982 37.7281 18.4622 38.8257 18.4622V22.6006ZM38.8257 8.11519C37.7281 8.11519 36.6755 7.67918 35.8994 6.90306C35.1233 6.12695 34.6872 5.07432 34.6872 3.97673H38.8257V8.11519Z" fill="#F60204"/>
</svg>
