<svg width="19" height="20" viewBox="0 0 19 20" fill="none" xmlns="http://www.w3.org/2000/svg">
<path d="M17.4124 9.96103C17.4124 11.4559 16.9691 12.9173 16.1386 14.1603C15.3081 15.4032 14.1276 16.372 12.7465 16.9441C11.3654 17.5163 9.84568 17.666 8.37949 17.3744C6.91329 17.0828 5.56648 16.363 4.50937 15.306C3.45225 14.249 2.73231 12.9023 2.44056 11.4361C2.14882 9.96996 2.29839 8.45021 2.87036 7.06905C3.44232 5.68789 4.411 4.50735 5.65389 3.67671C6.89678 2.84606 8.35807 2.40263 9.85298 2.40247C10.8457 2.40236 11.8286 2.59779 12.7458 2.97759C13.6629 3.3574 14.4963 3.91414 15.1982 4.61603C15.9002 5.31792 16.457 6.1512 16.8369 7.0683C17.2168 7.9854 17.4124 8.96835 17.4124 9.96103Z" stroke="#F60C1A" stroke-width="3" stroke-linecap="round" stroke-linejoin="round"/>
</svg>
