<svg width="123" height="157" viewBox="0 0 123 157" fill="none" xmlns="http://www.w3.org/2000/svg">
<path d="M57.7691 157C47.953 156.993 38.166 155.843 28.5773 153.569C19.5738 151.615 10.8924 148.209 2.82316 143.464L0 141.739L18.3985 98.4499L21.7402 100.529C27.0544 103.853 32.7586 106.384 38.6984 108.056C44.4162 109.732 50.3092 110.605 56.2327 110.655C60.0394 110.822 63.8238 109.95 67.2372 108.118C68.1456 107.7 68.9179 106.998 69.4551 106.101C69.9923 105.205 70.2699 104.155 70.2524 103.086C70.2524 101.548 70.2524 96.8489 57.7691 96.8489H36.3169V61.2531L51.3354 44.6195H7.97014V0H115.653V35.5542L93.6827 59.7145C101.493 62.4737 108.45 67.5094 113.791 74.2689C119.944 82.3815 123.207 92.6128 122.99 103.107C123.002 112.524 120.501 121.744 115.788 129.659C110.362 138.43 102.723 145.329 93.7787 149.536C84.0993 154.484 71.9809 157 57.7691 157Z" fill="#535353"/>
</svg>
