<svg width="124" height="155" viewBox="0 0 124 155" fill="none" xmlns="http://www.w3.org/2000/svg">
<path d="M9.14409 154.959V119.704L58.8818 70.4816C61.9093 67.6701 64.4932 64.3528 66.5338 60.6577C67.622 58.4407 68.2178 55.984 68.2746 53.4795C68.3487 52.4568 68.1968 51.4298 67.8312 50.4819C67.4656 49.534 66.8965 48.6919 66.1703 48.024C63.9741 46.4488 61.3419 45.7252 58.7097 45.9731C55.2739 45.965 51.9057 46.9957 48.9917 48.947C45.9809 50.8917 43.5721 53.7453 42.0667 57.1506L40.5363 60.5757L0 38.7539L1.68344 35.3699C7.13035 24.4501 15.4087 15.4538 25.5193 9.46676C35.8685 3.19095 48.4752 0.0120245 62.9756 0.0120245C73.1069 -0.174921 83.1702 1.81966 92.5696 5.87765C100.81 9.41169 107.97 15.3341 113.249 22.9823C118.319 30.509 121.001 39.5816 120.901 48.8649C120.939 57.1643 119.212 65.3638 115.851 72.8402C112.465 80.285 106.286 88.3656 96.7207 97.5743L84.2098 109.88H124V155L9.14409 154.959Z" fill="#FF3648"/>
</svg>
